<!--?xml version="1.0" standalone="no"?-->
              <svg id="sw-js-blob-svg" viewBox="0 0 100 100" xmlns="http://www.w3.org/2000/svg" version="1.1">
                    <defs> 
                        <linearGradient id="sw-gradient" x1="0" x2="1" y1="1" y2="0">
                            <stop id="stop1" stop-color="rgba(241, 245, 249, 1)" offset="0%"></stop>
                            <stop id="stop2" stop-color="rgba(226, 232, 240, 1)" offset="100%"></stop>
                        </linearGradient>
                    </defs>
                <path fill="url(#sw-gradient)" d="M18.7,-34.8C22.3,-30.3,22,-21.4,23.1,-14.9C24.2,-8.3,26.7,-4.2,28.8,1.2C30.9,6.6,32.6,13.2,30.2,17.4C27.8,21.6,21.2,23.5,15.5,28.4C9.7,33.4,4.9,41.5,-1.5,44.1C-7.9,46.7,-15.8,43.8,-22.6,39.5C-29.5,35.2,-35.3,29.5,-38.3,22.6C-41.4,15.8,-41.7,7.9,-38.8,1.7C-35.9,-4.5,-29.7,-9.1,-25.6,-14.1C-21.5,-19.2,-19.5,-24.7,-15.6,-28.9C-11.6,-33.2,-5.8,-36.1,0.9,-37.6C7.6,-39.1,15.1,-39.2,18.7,-34.8Z" width="100%" height="100%" transform="translate(50 50)" stroke-width="0" style="transition: 0.3s;" stroke="url(#sw-gradient)"></path>
              </svg>